<?xml version="1.0" encoding="UTF-8" standalone="no"?><!DOCTYPE svg PUBLIC "-//W3C//DTD SVG 1.1//EN" "http://www.w3.org/Graphics/SVG/1.1/DTD/svg11.dtd">
<svg width="100%" height="100%" viewBox="0 0 300 73" version="1.1" 
    xmlns="http://www.w3.org/2000/svg" 
    xmlns:xlink="http://www.w3.org/1999/xlink" xml:space="preserve" style="fill-rule:evenodd;clip-rule:evenodd;stroke-linejoin:round;stroke-miterlimit:1.41421;">
    <g>
        <path d="M30.424,0.342c-6.212,0 -16.493,2.763 -20.884,4.995c-0.964,0.425 -1.499,1.169 -1.499,2.019c0,1.169 0.107,4.251 0.107,5.632c0,0.744 -0.215,1.701 -0.322,2.126c-3.534,14.028 -7.604,36.876 -7.604,42.19c0,0.744 0.214,1.381 0.75,2.231c1.928,2.87 8.568,10.734 13.494,12.541c1.607,0.531 8.247,0.531 9.532,0.531c15.101,-0.319 28.489,-9.883 28.489,-20.511c0,-4.144 -3.535,-9.245 -7.711,-12.54c-0.429,-0.318 -0.643,-0.744 -0.643,-1.062c0,-0.425 0.321,-0.851 0.857,-1.063c6.533,-3.401 11.781,-8.608 11.781,-16.791c0,-7.97 -13.495,-20.298 -26.347,-20.298l0,0Zm-10.281,43.784c0.214,-1.169 1.178,-1.7 2.142,-1.7c2.035,-0.107 3.427,-0.107 4.177,-0.107c2.356,0 7.175,0.744 7.175,5.527c0,6.057 -9.317,8.501 -13.601,8.608c-1.071,0 -1.714,-0.532 -1.714,-1.382c0,-1.063 1.499,-9.458 1.821,-10.946l0,0Zm6.104,-28.056c0.643,-1.806 1.821,-2.019 3.428,-2.019c3.748,0 9.21,1.063 9.21,5.951c0,6.27 -8.996,10.309 -14.458,10.309c-0.75,0 -1.285,-0.425 -1.285,-1.063c0.749,-3.826 2.677,-11.902 3.105,-13.178l0,0Z" style="fill:#222;fill-rule:nonzero;"/>
        <path d="M87.722,70.056c2.678,0.744 9.425,2.445 11.032,2.445c0.963,0 1.713,-0.851 1.82,-1.807c0.214,-8.608 1.607,-24.549 5.998,-40.277c0,0 0.107,-0.638 0.107,-0.85c0,-0.957 -0.321,-1.594 -1.285,-2.232c-7.283,-4.782 -19.492,-9.458 -25.276,-9.458c-17.564,0 -23.776,22.848 -23.776,35.601c0,10.308 9.425,19.235 16.815,19.235c3.427,0 7.176,-3.401 10.603,-9.245c0.214,-0.426 0.428,-0.638 0.642,-0.638c0.214,0 0.429,0.319 0.429,0.85l0.321,3.507c0.214,1.063 0.75,2.338 2.57,2.869l0,0Zm-5.355,-17.853c-2.034,1.913 -4.712,3.719 -6.211,3.719c-0.857,0 -1.5,-1.7 -1.5,-4.463c0,-5.951 3.32,-18.917 9.318,-18.917c1.392,0 2.57,0.744 2.57,2.232l0,0.532c-0.964,4.782 -2.249,9.777 -2.999,14.771c-0.107,0.638 -0.535,1.488 -1.178,2.126Z" style="fill:#222;fill-rule:nonzero;"/>
        <path d="M109.035,39.025c0,14.878 21.527,14.028 21.527,17.854c-0.107,1.487 -2.784,2.019 -4.498,2.019c-3.856,0 -9.104,-2.338 -13.387,-4.57c-0.429,-0.212 -1.071,-0.637 -1.714,-0.637c-0.75,0 -1.285,0.425 -1.821,1.594c-0.857,2.231 -2.356,7.97 -2.356,8.714c0,0.956 0.214,2.019 1.285,2.763c4.82,3.507 13.281,5.951 20.563,5.951c10.068,0 19.385,-7.651 19.385,-17.747c0,-10.946 -20.563,-9.352 -20.563,-15.835c0,-2.444 2.892,-8.289 5.998,-8.289c1.071,0 1.713,0.744 1.713,2.232c0,2.55 -1.178,6.164 -1.178,6.695c0,0.956 0.536,1.594 1.607,1.7c2.142,0 7.818,0 10.174,-0.212c1.178,0 2.249,-0.638 2.892,-1.594c0.964,-1.382 2.892,-5.101 2.892,-7.758c0,-9.246 -20.885,-14.134 -24.098,-14.134c-12.745,0.106 -18.421,15.09 -18.421,21.254l0,0Z" style="fill:#222;fill-rule:nonzero;"/>
        <path d="M170.189,52.309c0,-0.744 0.535,-1.169 1.392,-1.169c0.643,0 3.32,0.319 5.034,0.319c11.995,0 20.242,-8.077 20.242,-17.322c0,-3.401 -1.179,-5.314 -3.321,-7.652c-2.998,-3.294 -13.815,-8.714 -20.241,-8.714c-13.174,0 -21.099,20.51 -21.099,31.987c0,4.995 0.75,9.777 3.32,13.178c4.927,6.695 13.923,9.777 19.599,9.777c5.57,0 12.531,-3.826 14.994,-6.376c0.75,-0.744 1.178,-1.275 1.178,-2.763c0,-1.169 -1.499,-6.483 -2.356,-8.183c-0.428,-0.957 -1.071,-1.275 -1.82,-1.275c-1.393,0 -6.855,2.763 -11.889,2.763c-3.534,0 -5.033,-2.338 -5.033,-4.57l0,0Zm8.889,-22.317c1.392,0 1.928,1.381 1.928,2.976c0,3.932 -3.534,9.245 -7.818,9.245c-0.643,0 -1.071,-0.425 -1.071,-1.275c0,-1.913 3.962,-10.946 6.961,-10.946Z" style="fill:#222;fill-rule:nonzero;"/>
        <path d="M237.876,34.562c6.533,-3.295 11.031,-7.439 11.031,-12.859c0,-8.396 -7.818,-20.617 -19.706,-20.617c-9.961,0 -19.707,4.782 -23.027,6.695c-0.857,0.531 -1.178,1.382 -1.178,2.338c0,1.807 2.356,9.352 3.534,12.434c0.429,0.744 0.857,1.063 1.5,1.063c0.535,0 1.071,-0.213 1.285,-0.425c4.712,-2.87 11.674,-4.783 15.636,-4.783c2.25,0 3.856,0.638 3.856,2.338c0,4.57 -8.675,7.014 -17.457,9.458c-0.964,0.213 -1.714,0.957 -1.714,2.02c0,1.169 1.5,7.226 2.356,9.458c0.429,1.275 1.179,1.594 2.035,1.594c1.821,-0.425 4.177,-1.169 5.569,-1.169c3.642,0 4.392,2.763 4.392,4.995c0,4.144 -2.785,10.095 -7.069,10.095c-3.641,0 -5.89,-5.101 -7.283,-9.883c-0.107,-0.744 -0.964,-1.381 -2.035,-1.381c-1.178,0 -8.996,2.656 -10.71,3.507c-1.499,0.744 -1.606,1.806 -1.606,2.869c0,2.551 1.714,9.671 4.927,12.753c5.033,5.101 14.458,7.757 19.813,7.757c13.923,0 22.491,-15.09 22.491,-25.292c0,-5.42 -3.427,-8.396 -6.748,-11.159c-0.321,-0.319 -0.749,-0.531 -0.749,-0.956c0,-0.319 0.321,-0.532 0.857,-0.85l0,0Z" style="fill:#222;fill-rule:nonzero;"/>
        <path d="M293.353,40.088c-0.857,0 -1.178,-0.319 -1.178,-1.063c0,-0.213 0.107,-0.744 0.107,-0.744c2.57,-13.603 5.355,-24.867 7.283,-30.394c0,0 0.214,-0.531 0.214,-0.956c0,-0.85 -0.428,-1.594 -1.285,-1.913c-3.427,-1.275 -12.21,-3.719 -13.602,-3.719c-0.964,0 -1.499,0.318 -1.928,0.956c-0.321,0.531 -0.642,0.85 -1.071,0.85c-0.321,0 -0.642,-0.212 -1.071,-0.531c-0.749,-0.532 -2.356,-1.063 -3.213,-1.063c-0.856,0 -1.606,0.425 -2.034,1.063c-4.82,6.589 -19.814,29.543 -27.311,39.745c-0.535,0.744 -0.857,1.807 -0.857,2.87c0,2.55 2.785,10.414 3.963,12.54c0.536,0.85 1.285,1.381 2.463,1.381c1.5,0 13.602,-1.275 15.851,-1.275c0.857,0 1.499,0.531 1.499,1.382c0,1.275 -0.321,5.42 -0.321,7.226c0,1.063 0.643,2.338 1.714,2.763c2.463,1.063 9.96,3.507 12.637,3.507c0.964,0 1.714,-0.637 1.821,-1.7c0.429,-4.039 1.071,-8.608 1.821,-12.753c0.214,-1.063 0.75,-2.019 2.249,-2.125l4.605,-0.213c1.071,-0.106 1.714,-0.956 1.714,-2.125c-0.107,-3.507 -0.75,-8.714 -1.178,-11.69c-0.107,-1.063 -0.429,-2.019 -1.714,-2.019l-1.178,0l0,0Zm-27.953,0.425c1.821,-2.444 8.996,-13.284 10.603,-16.047c0,0 0.321,-0.532 0.535,-0.532c0.108,0 0.215,0.107 0.215,0.426c0,0.531 -1.821,10.202 -2.785,15.196c-0.214,1.063 -0.857,1.807 -2.035,1.913c-2.249,0.107 -3.748,0.425 -5.676,0.638c-0.643,0 -1.071,-0.319 -1.071,-0.85c0,-0.425 0.214,-0.744 0.214,-0.744l0,0Z" style="fill:#222;fill-rule:nonzero;"/>
    </g>
</svg>
